<svg id="Layer_1" data-name="Layer 1" xmlns="http://www.w3.org/2000/svg" viewBox="0 0 627.33 429.2"><defs><style>.cls-1{fill:#1c0c07;}.cls-2{fill:#391a11;}.cls-3{fill:#361911;}.cls-4{fill:#cab3d8;}.cls-5{fill:#ffe674;}.cls-6{fill:#92c88e;}.cls-7{fill:#6675b7;}.cls-8{fill:#1d1d1b;}.cls-9{fill:#eb5e43;}</style></defs><title>Pincel de arte III</title><rect class="cls-1" x="42.75" width="83.25" height="400.12" rx="19.11"/><rect class="cls-1" x="207.56" y="49.27" width="83.25" height="350.85" rx="19.11"/><rect class="cls-2" x="298.03" y="124.03" width="51.18" height="276.09" rx="19.11"/><rect class="cls-3" x="132.8" width="67.96" height="400.12" rx="19.11"/><rect class="cls-4" x="42.75" y="64.74" width="83.25" height="50.53"/><rect class="cls-5" x="132.8" y="64.74" width="67.96" height="50.53"/><rect class="cls-6" x="207.56" y="115.27" width="83.25" height="32"/><rect class="cls-7" x="298.03" y="153.91" width="51.18" height="25.27"/><polygon class="cls-8" points="565.62 429.19 0 429.19 15.22 407.44 580.84 407.44 565.62 429.19"/><polygon class="cls-8" points="612.11 429.19 575.06 429.19 590.28 407.44 627.33 407.44 612.11 429.19"/><path class="cls-8" d="M365.1,213.55H497.33a20.06,20.06,0,0,1,20.06,20.06V380.06a20.06,20.06,0,0,1-20.06,20.06H365.1a0,0,0,0,1,0,0V213.55A0,0,0,0,1,365.1,213.55Z"/><rect x="365.1" y="213.55" width="16.79" height="186.57"/><polygon class="cls-9" points="439.64 190.93 426.55 203.35 413.47 190.93 413.47 213.54 439.64 213.54 439.64 190.93"/></svg>